HIERARCHY
ROOT Hips
{
 OFFSET 0.000000 0.000000 0.000000
 CHANNELS 6 Xposition Yposition Zposition Yrotation Xrotation Zrotation
 JOINT Chest
 {
  OFFSET 0.000000 9.581000 -0.001100
  CHANNELS 3 Yrotation Xrotation Zrotation
  JOINT Chest2
  {
   OFFSET 0.000000 9.561100 0.002200
   CHANNELS 3 Yrotation Xrotation Zrotation
   JOINT Chest3
   {
    OFFSET 0.000000 9.521100 0.000000
    CHANNELS 3 Yrotation Xrotation Zrotation
    JOINT Chest4
    {
     OFFSET 0.000000 9.511400 0.000000
     CHANNELS 3 Yrotation Xrotation Zrotation
     JOINT Neck
     {
      OFFSET 0.000000 14.375100 0.000000
      CHANNELS 3 Yrotation Xrotation Zrotation
      JOINT Head
      {
       OFFSET 0.000000 8.901200 0.004600
       CHANNELS 3 Yrotation Xrotation Zrotation
       End Site
       {
        OFFSET 0.000000 16.962200 0.002400
       }
      }
     }
     JOINT RightCollar
     {
      OFFSET -2.920100 9.518800 0.000000
      CHANNELS 3 Yrotation Xrotation Zrotation
      JOINT RightShoulder
      {
       OFFSET -13.664500 0.000000 0.000000
       CHANNELS 3 Yrotation Xrotation Zrotation
       JOINT RightElbow
       {
        OFFSET 0.000000 -29.999200 0.000000
        CHANNELS 3 Yrotation Xrotation Zrotation
        JOINT RightWrist
        {
         OFFSET 0.000000 -24.253600 0.000000
         CHANNELS 3 Yrotation Xrotation Zrotation
         End Site
         {
          OFFSET 0.000000 -17.918900 0.000000
         }
        }
       }
      }
     }
     JOINT LeftCollar
     {
      OFFSET 2.920100 9.518800 0.000000
      CHANNELS 3 Yrotation Xrotation Zrotation
      JOINT LeftShoulder
      {
       OFFSET 13.664500 0.000000 0.000000
       CHANNELS 3 Yrotation Xrotation Zrotation
       JOINT LeftElbow
       {
        OFFSET 0.000000 -29.999200 0.000000
        CHANNELS 3 Yrotation Xrotation Zrotation
        JOINT LeftWrist
        {
         OFFSET 0.000000 -24.253600 0.000000
         CHANNELS 3 Yrotation Xrotation Zrotation
         End Site
         {
          OFFSET 0.000000 -17.918900 0.000000
         }
        }
       }
      }
     }
    }
   }
  }
 }
 JOINT RightHip
 {
  OFFSET -7.797300 0.005300 0.000500
  CHANNELS 3 Yrotation Xrotation Zrotation
  JOINT RightKnee
  {
   OFFSET 0.000000 -40.663400 -0.000500
   CHANNELS 3 Yrotation Xrotation Zrotation
   JOINT RightAnkle
   {
    OFFSET 0.000000 -39.523700 -0.000900
    CHANNELS 3 Yrotation Xrotation Zrotation
    JOINT RightToe
    {
     OFFSET 0.000000 -6.418000 14.485300
     CHANNELS 3 Yrotation Xrotation Zrotation
     End Site
     {
      OFFSET 0.000000 -1.465200 6.326400
     }
    }
   }
  }
 }
 JOINT LeftHip
 {
  OFFSET 7.797300 0.005300 0.000500
  CHANNELS 3 Yrotation Xrotation Zrotation
  JOINT LeftKnee
  {
   OFFSET 0.000000 -40.663400 -0.000500
   CHANNELS 3 Yrotation Xrotation Zrotation
   JOINT LeftAnkle
   {
    OFFSET 0.000000 -39.523700 -0.000900
    CHANNELS 3 Yrotation Xrotation Zrotation
    JOINT LeftToe
    {
     OFFSET 0.000000 -6.418000 14.485300
     CHANNELS 3 Yrotation Xrotation Zrotation
     End Site
     {
      OFFSET 0.000000 -1.465200 6.326400
     }
    }
   }
  }
 }
}
MOTION
Frames: 5
Frame Time: 0.008333
-21.841037 126.674364 70.078027 -171.013646 -34.644878 -2.752116 -2.055434 20.447064 0.139328 -0.259388 2.609852 0.057144 -0.418029 4.283975 0.088091 -1.744334 17.546753 0.158984 0.539864 16.073097 -2.831262 1.217683 -8.776809 -3.096666 -6.921799 -0.138171 0.800631 -25.925196 -4.372770 -1.935109 -100.781316 -15.245995 86.820112 -34.123030 -17.284723 -10.736886 -4.655356 0.728076 1.016296 17.765396 -8.226997 2.089978 76.983271 -30.482410 -78.421984 28.899996 -24.473481 9.082093 0.658569 -50.807448 -2.419709 -30.900283 67.188010 -26.457438 29.221433 36.363775 20.168327 0.023106 0.006598 0.010239 -12.898999 -42.626120 -4.800260 30.238879 79.182416 20.089627 0.470293 -2.652781 6.122222 -0.005964 0.000261 -0.002642
-21.842360 126.673412 70.076307 -170.993334 -34.620207 -2.757418 -2.066008 20.437979 0.136967 -0.249793 2.629273 0.060034 -0.426423 4.270729 0.088311 -1.753968 17.535007 0.159422 0.546797 16.116200 -2.824882 1.218612 -8.755746 -3.094719 -6.912717 -0.184911 0.791958 -25.894549 -4.338904 -1.905674 -100.730983 -15.213708 86.816967 -34.128015 -17.301969 -10.742528 -4.682311 0.714032 1.019121 17.779744 -8.205172 2.098134 76.961824 -30.463384 -78.451576 28.899139 -24.456228 9.094189 0.547656 -50.822714 -2.381748 -30.886510 67.186469 -26.453223 29.238689 36.349865 20.120775 0.023397 0.005947 0.010367 -12.874603 -42.642361 -4.801656 30.130117 79.173404 19.967812 0.461083 -2.636093 6.160197 -0.008863 -0.001120 -0.003927
-21.844041 126.671971 70.074875 -170.974104 -34.590722 -2.758615 -2.075061 20.428489 0.133795 -0.250343 2.633720 0.061845 -0.428357 4.270084 0.088979 -1.761923 17.533464 0.161348 0.549542 16.155650 -2.822355 1.218743 -8.735495 -3.096114 -6.886420 -0.251629 0.764791 -25.909646 -4.288646 -1.890048 -100.652230 -15.151280 86.813705 -34.131531 -17.319567 -10.752022 -4.701387 0.690293 1.018661 17.786934 -8.185366 2.106651 76.927444 -30.438629 -78.477855 28.896995 -24.446472 9.089905 0.426120 -50.847074 -2.337075 -30.876541 67.180363 -26.462560 29.229442 36.353253 20.081857 0.018249 0.001599 0.008086 -12.845008 -42.662323 -4.806658 30.023869 79.160969 19.849417 0.449761 -2.618964 6.197747 -0.010705 -0.001528 -0.004743
-21.844695 126.671662 70.071310 -170.967583 -34.572787 -2.759445 -2.068624 20.436290 0.139486 -0.253818 2.636368 0.063717 -0.432491 4.261454 0.087991 -1.766542 17.547805 0.164641 0.548179 16.175278 -2.824419 1.218957 -8.708140 -3.097136 -6.875109 -0.296950 0.754095 -25.842025 -4.269766 -1.826374 -100.639761 -15.146434 86.822005 -34.133479 -17.333937 -10.759447 -4.708448 0.655737 1.016787 17.766106 -8.116238 2.140885 76.947546 -30.404904 -78.555105 28.894079 -24.425370 9.063442 0.292999 -50.864984 -2.270579 -30.871991 67.171323 -26.486035 29.218421 36.370731 20.054731 0.011336 -0.005616 0.005022 -12.806191 -42.669215 -4.809514 29.874052 79.156863 19.707793 0.444146 -2.607059 6.211775 -0.003452 -0.001257 -0.001529
-21.846075 126.669422 70.070243 -170.947219 -34.533567 -2.760310 -2.069142 20.459005 0.148699 -0.267608 2.598457 0.056726 -0.438120 4.244488 0.085391 -1.768053 17.556598 0.165744 0.548556 16.212130 -2.822650 1.217688 -8.689253 -3.098829 -6.871036 -0.315857 0.751041 -25.783186 -4.260842 -1.799106 -100.654806 -15.144237 86.826571 -34.134198 -17.339626 -10.762500 -4.726506 0.637170 1.026670 17.783652 -8.078628 2.150758 76.910953 -30.382948 -78.591405 28.894156 -24.448388 9.049341 0.150016 -50.908826 -2.213846 -30.871217 67.164481 -26.519960 29.245867 36.388820 20.043174 0.009291 -0.009660 0.004116 -12.799529 -42.703200 -4.811465 29.790194 79.148150 19.619479 0.445322 -2.593633 6.223157 -0.001523 0.000005 -0.000675
